# xmcd
#
# Track frame offsets: 
#        182
#        30845
#        79657
#        113145
#        205657
#        224995
#
# Disc length: 3460 seconds
#
# Revision: 0
# Processed by: cddbd v1.5.2PL0 Copyright (c) Steve Scherf et al.
# Submitted via: ExactAudioCopy v0.95b4
#
DISCID=4b0d8206
DTITLE=Eric Clapton - 1990-02-24 - Brussels Affair - CD2
DYEAR=1990
DGENRE=Blues
TTITLE0=Before You Accuse Me
TTITLE1=Old Love
TTITLE2=Tearing Us Apart
TTITLE3=Wonderful Tonight and Band Introductions and Cocaine
TTITLE4=Jaco Pastorius Intro
TTITLE5=Layla
EXTD=
EXTT0=
EXTT1=
EXTT2=
EXTT3=
EXTT4=
EXTT5=
PLAYORDER=
